<svg viewBox="0 0 240 240" xmlns="http://www.w3.org/2000/svg"><defs><linearGradient id="bg" x1="0" y1="0" x2="0" y2="240"><stop offset="0%" stop-color="#0f172a"/><stop offset="100%" stop-color="#1e293b"/></linearGradient></defs><rect width="240" height="240" rx="24" fill="url(#bg)"/><path d="M70 180h100v40H70z" fill="#334155"/><path d="M85 190h70v30H85z" fill="#475569"/><path d="M120 180v40" stroke="#fbbf24" stroke-width="2" stroke-dasharray="4 4"/><circle cx="120" cy="110" r="45" fill="#f59e0b" opacity="0.1"/><path d="M95 150c0-20 12-35 25-35s25 15 25 35v50H95v-50z" fill="#ec4899"/><path d="M105 130c0-8 6-15 15-15s15 7 15 15" fill="none" stroke="#fff" stroke-width="4" stroke-linecap="round"/><path d="M110 160h20M110 170h20M110 180h20" stroke="#fff" stroke-width="2" stroke-linecap="round"/><path d="M145 120l15-10 10 20-15 10z" fill="#38bdf8"/><path d="M95 120l-15-10-10 20 15 10z" fill="#10b981"/><path d="M120 80l-10-20 20-5 10 20z" fill="#fb923c"/><circle cx="180" cy="60" r="15" fill="#fbbf24" opacity="0.3"/><circle cx="50" cy="180" r="10" fill="#38bdf8" opacity="0.2"/><path d="M160 140l20-5 5 15-20 5z" fill="#f59e0b" opacity="0.6"/></svg>