<svg viewBox="0 0 240 240" xmlns="http://www.w3.org/2000/svg">
  <defs>
    <linearGradient id="bg" x1="0" y1="0" x2="0" y2="240">
      <stop offset="0%" stop-color="#0f172a"/>
      <stop offset="100%" stop-color="#1e293b"/>
    </linearGradient>
  </defs>
  <rect width="240" height="240" rx="24" fill="url(#bg)"/>
  
  <g transform="translate(40, 60)">
    <path d="M60 120 C 60 80, 90 50, 120 50 C 150 50, 180 80, 180 120" fill="none" stroke="#38bdf8" stroke-width="4" stroke-dasharray="8 8"/>
    
    <path d="M70 120 L110 120 L110 160 L70 160 Z" fill="#fb923c"/>
    <path d="M80 130 L100 130 L100 150 L80 150 Z" fill="#0f172a"/>
    
    <circle cx="140" cy="110" r="15" fill="#f59e0b" opacity="0.8"/>
    <circle cx="155" cy="100" r="8" fill="#f59e0b" opacity="0.5"/>
    <circle cx="165" cy="95" r="4" fill="#f59e0b" opacity="0.3"/>
    
    <path d="M130 140 Q150 120 170 140" fill="none" stroke="#ec4899" stroke-width="3" stroke-linecap="round"/>
    <path d="M135 145 Q150 130 165 145" fill="none" stroke="#ec4899" stroke-width="2" stroke-linecap="round"/>
    
    <circle cx="90" cy="140" r="3" fill="#10b981"/>
    <circle cx="105" cy="155" r="2" fill="#10b981"/>
  </g>
</svg>