<svg viewBox="0 0 240 240" xmlns="http://www.w3.org/2000/svg"><defs><linearGradient id="bg" x1="0" y1="0" x2="0" y2="240"><stop offset="0%" stop-color="#0f172a"/><stop offset="100%" stop-color="#1e293b"/></linearGradient></defs><rect width="240" height="240" rx="24" fill="url(#bg)"/><g transform="translate(20, 40)"><rect x="10" y="10" width="180" height="120" rx="4" fill="#334155"/><rect x="15" y="15" width="170" height="110" rx="2" fill="#f8fafc"/><path d="M30 40h140M30 60h140M30 80h100" stroke="#94a3b8" stroke-width="4" stroke-linecap="round"/><circle cx="150" cy="100" r="15" fill="#f59e0b"/><path d="M140 100h20M150 90v20" stroke="#fff" stroke-width="4" stroke-linecap="round"/></g><g transform="translate(40, 140)"><path d="M60 80c-10 0-20-5-20-15v-30c0-10 10-15 20-15s20 5 20 15v30c0 10-10 15-20 15z" fill="#38bdf8"/><path d="M50 30c0-10 5-20 10-20s10 10 10 20" fill="#fb923c"/><circle cx="60" cy="20" r="8" fill="#fde68a"/><path d="M45 45l-15 10M75 45l15 10" stroke="#38bdf8" stroke-width="4" stroke-linecap="round"/><path d="M55 70h10" stroke="#fff" stroke-width="3" stroke-linecap="round"/></g><g transform="translate(130, 140)"><path d="M40 80c-10 0-20-5-20-15v-30c0-10 10-15 20-15s20 5 20 15v30c0 10-10 15-20 15z" fill="#10b981"/><path d="M30 30c0-10 5-20 10-20s10 10 10 20" fill="#ec4899"/><circle cx="40" cy="20" r="8" fill="#fde68a"/><path d="M25 45l-15 10M55 45l15 10" stroke="#10b981" stroke-width="4" stroke-linecap="round"/><path d="M35 70h10" stroke="#fff" stroke-width="3" stroke-linecap="round"/></g><path d="M100 180l20-20 20 20" stroke="#fbbf24" stroke-width="6" stroke-linecap="round" stroke-linejoin="round"/></svg>