<svg viewBox="0 0 240 240" xmlns="http://www.w3.org/2000/svg">
  <defs>
    <linearGradient id="bgGrad" x1="0" y1="0" x2="0" y2="240">
      <stop offset="0%" stop-color="#0f172a"/>
      <stop offset="100%" stop-color="#1e293b"/>
    </linearGradient>
  </defs>
  <rect width="240" height="240" rx="24" fill="url(#bgGrad)"/>
  
  <!-- Desk -->
  <rect x="40" y="160" width="160" height="12" rx="2" fill="#334155"/>
  <rect x="50" y="172" width="10" height="60" rx="2" fill="#475569"/>
  <rect x="180" y="172" width="10" height="60" rx="2" fill="#475569"/>
  
  <!-- Laptop -->
  <path d="M80 160 L160 160 L170 120 L70 120 Z" fill="#94a3b8"/>
  <rect x="75" y="125" width="90" height="30" rx="2" fill="#1e293b"/>
  <rect x="85" y="130" width="70" height="20" rx="1" fill="#38bdf8"/>
  
  <!-- Character -->
  <circle cx="120" cy="90" r="25" fill="#fde68a"/>
  <path d="M105 85 Q110 80 115 85 M125 85 Q130 80 135 85" stroke="#475569" stroke-width="2" fill="none"/>
  <path d="M110 100 Q120 105 130 100" stroke="#475569" stroke-width="2" fill="none"/>
  <path d="M95 115 L145 115 L155 160 L85 160 Z" fill="#fb923c"/>
  
  <!-- Light Bulb (Idea) -->
  <path d="M180 60 A20 20 0 0 1 200 80 L200 90 A5 5 0 0 1 190 95 L190 100 A5 5 0 0 1 180 95 L180 90 A5 5 0 0 1 180 80 Z" fill="#f59e0b"/>
  <rect x="185" y="100" width="10" height="5" fill="#f59e0b"/>
  
  <!-- Coffee Mug -->
  <circle cx="170" cy="150" r="8" fill="#ec4899"/>
  <path d="M178 148 A5 5 0 0 1 178 158" stroke="#ec4899" stroke-width="2" fill="none"/>
  
  <!-- Background elements -->
  <circle cx="40" cy="50" r="3" fill="#10b981"/>
  <circle cx="200" cy="30" r="4" fill="#38bdf8"/>
  <path d="M30 100 L35 90 L40 100 Z" fill="#fbbf24"/>
</svg>